<!DOCTYPE svg PUBLIC "-//W3C//DTD SVG 1.1//EN" "http://www.w3.org/Graphics/SVG/1.1/DTD/svg11.dtd">
<!-- Uploaded to: SVG Repo, www.svgrepo.com, Transformed by: SVG Repo Mixer Tools -->
<svg fill="#ffffff" version="1.1" id="Capa_1" xmlns="http://www.w3.org/2000/svg" xmlns:xlink="http://www.w3.org/1999/xlink" width="800px" height="800px" viewBox="0 0 447.699 447.699" xml:space="preserve" stroke="#ffffff">
<g id="SVGRepo_bgCarrier" stroke-width="0"/>
<g id="SVGRepo_tracerCarrier" stroke-linecap="round" stroke-linejoin="round"/>
<g id="SVGRepo_iconCarrier"> <g> <path d="M380.664,64.167c-42.057-33.02-97.748-51.205-156.814-51.205S109.092,31.147,67.034,64.167 C23.807,98.107,0,143.591,0,192.243c0,48.025,24.391,94.531,67.043,128.061l-20.154,94.582c-1.289,6.043,0.881,12.227,5.664,16.139 c2.926,2.395,6.621,3.713,10.404,3.713c2.264,0,4.463-0.457,6.539-1.357l143.01-62.082c3.803,0.15,7.613,0.229,11.344,0.229 c59.066,0,114.755-18.186,156.814-51.206c43.229-33.938,67.035-79.425,67.035-128.075 C447.699,143.594,423.893,98.107,380.664,64.167z M348.553,279.417c-32.941,25.863-77.229,40.105-124.626,40.107 c-0.734-0.012-73.949-1.562-122.873-38.653c-16.461-12.479-28.217-25.908-36.994-42.258C56.057,223.71,52,208.108,52,192.242 c0-15.748,3.846-31.065,11.434-45.528c8.053-15.354,20.068-29.364,35.713-41.646c32.939-25.863,77.226-40.106,124.703-40.106 s91.763,14.243,124.703,40.105c15.645,12.283,27.66,26.295,35.713,41.646c7.588,14.464,11.434,29.782,11.434,45.529 c0,15.748-3.846,31.066-11.434,45.528C376.213,253.124,364.197,267.136,348.553,279.417z"/> </g> </g>
</svg>